<?xml version="1.0" standalone="no"?>
<!DOCTYPE svg PUBLIC "-//W3C//DTD SVG 20010904//EN"
 "http://www.w3.org/TR/2001/REC-SVG-20010904/DTD/svg10.dtd">
<svg version="1.0" xmlns="http://www.w3.org/2000/svg"
 width="1200.000000pt" height="1200.000000pt" viewBox="0 0 1200.000000 1200.000000"
 preserveAspectRatio="xMidYMid meet">

<g transform="translate(0.000000,1200.000000) scale(0.100000,-0.100000)"
fill="#000000" stroke="none">
<path d="M2936 10900 c-182 -21 -402 -74 -463 -111 -35 -22 -73 -90 -73 -132
0 -66 30 -101 450 -522 363 -364 423 -428 445 -478 50 -108 50 -226 0 -334
-22 -48 -66 -98 -263 -296 -193 -194 -248 -243 -297 -268 -115 -56 -239 -57
-350 -3 -38 19 -153 128 -470 444 -421 420 -456 450 -522 450 -42 0 -110 -38
-132 -73 -22 -37 -63 -176 -85 -292 -155 -815 218 -1643 935 -2073 375 -225
837 -323 1262 -267 113 15 344 68 381 87 16 9 73 -44 427 -398 l409 -409 -82
-7 c-98 -7 -192 -39 -268 -90 -32 -22 -685 -668 -1552 -1535 l-1497 -1498 -41
-87 c-79 -169 -79 -327 0 -496 l41 -87 617 -617 617 -617 87 -41 c165 -77 328
-78 492 -3 l81 37 1508 1505 c829 828 1522 1528 1539 1554 48 75 79 171 85
265 l6 84 1636 -1635 c900 -899 1657 -1649 1684 -1666 71 -48 183 -98 272
-122 112 -31 326 -31 436 -1 426 116 700 515 649 942 -19 151 -61 264 -148
400 -22 35 -713 733 -1901 1923 l-1866 1867 1205 1206 c663 663 1212 1209
1221 1214 9 5 124 1 285 -11 245 -18 273 -18 310 -4 23 9 50 26 62 38 30 33
828 1477 836 1514 4 17 2 51 -4 74 -10 37 -46 77 -248 281 -129 131 -253 250
-275 265 -30 21 -51 27 -91 27 -48 0 -88 -20 -786 -408 -404 -225 -745 -417
-757 -429 -12 -11 -29 -38 -38 -61 -14 -37 -14 -65 4 -310 12 -161 16 -276 11
-285 -5 -9 -551 -558 -1214 -1221 l-1206 -1205 -645 645 -645 645 24 75 c157
495 90 1087 -175 1551 -298 521 -805 876 -1399 980 -132 23 -402 33 -524 19z
m518 -349 c597 -123 1073 -549 1259 -1126 61 -190 72 -264 72 -505 0 -237 -14
-336 -75 -516 -29 -85 -34 -92 -129 -188 -107 -110 -128 -149 -112 -217 12
-53 38 -86 85 -109 77 -37 140 -20 221 60 l50 50 620 -620 620 -620 -169 -169
-169 -169 -56 39 c-197 138 -428 111 -627 -75 l-81 -75 -519 520 c-285 286
-536 529 -556 540 -52 27 -73 24 -206 -21 -585 -199 -1195 -78 -1658 328 -262
229 -447 551 -526 915 -19 89 -22 132 -23 329 0 124 3 230 8 234 4 4 155 -139
335 -317 304 -303 333 -328 408 -367 220 -112 471 -108 691 13 56 31 117 87
338 309 293 294 322 332 372 481 24 71 27 95 27 215 0 118 -3 145 -26 212 -53
159 -74 186 -421 535 -209 210 -316 324 -306 327 32 12 93 14 269 11 137 -3
211 -9 284 -24z m6951 -151 l140 -140 -16 -28 c-8 -15 -162 -293 -342 -617
l-328 -590 -257 18 c-200 14 -266 16 -297 7 -34 -10 -257 -228 -1580 -1551
l-1540 -1539 -113 112 -112 113 1539 1540 c1323 1323 1541 1546 1551 1580 9
31 7 97 -7 297 l-18 257 610 340 c335 187 615 340 620 340 6 1 73 -62 150
-139z m-4948 -4190 c32 -12 727 -700 749 -742 18 -35 18 -91 0 -126 -8 -15
-70 -82 -138 -149 l-123 -123 -438 438 -437 437 127 126 c71 70 137 132 148
137 26 14 76 15 112 2z m3164 -2007 c1737 -1739 1858 -1863 1892 -1929 115
-223 79 -472 -92 -643 -108 -109 -234 -161 -388 -161 -43 0 -105 7 -138 15
-145 38 -42 -59 -1882 1778 l-1702 1700 74 81 c89 96 131 170 151 268 27 125
0 247 -77 360 l-41 61 163 163 c90 90 168 164 174 164 6 0 845 -836 1866
-1857z m-3990 1681 c52 -15 74 -36 637 -597 383 -383 589 -596 602 -622 30
-62 34 -115 15 -181 l-16 -59 -1477 -1478 c-916 -917 -1492 -1486 -1517 -1499
-22 -11 -67 -23 -100 -26 -90 -7 -142 19 -246 124 l-84 84 1281 1283 c1187
1187 1284 1287 1313 1347 43 91 61 170 61 270 0 161 -52 283 -169 401 -119
118 -240 169 -406 169 -103 0 -171 -16 -265 -61 -60 -29 -162 -129 -1348
-1313 l-1283 -1281 -92 95 c-75 76 -96 104 -106 142 -16 57 -11 140 12 188 10
21 623 641 1496 1514 1399 1399 1481 1479 1532 1497 67 23 91 23 160 3z m-1
-1130 c45 -19 96 -68 123 -119 30 -56 30 -164 0 -220 -13 -24 -532 -550 -1280
-1298 l-1258 -1257 -178 178 -177 177 1268 1267 c989 988 1275 1268 1302 1276
19 6 44 13 55 16 29 7 105 -4 145 -20z"/>
<path d="M9923 2249 c-98 -48 -163 -166 -148 -267 16 -108 99 -200 199 -223
144 -32 281 55 316 201 29 120 -50 259 -169 299 -56 18 -150 14 -198 -10z"/>
</g>
</svg>
