<svg width="21" height="22" viewBox="0 0 21 22" fill="none" xmlns="http://www.w3.org/2000/svg">
<path d="M10.1694 13.9194L16 19.75C17.0355 20.7855 18.7145 20.7855 19.75 19.75C20.7855 18.7145 20.7855 17.0355 19.75 16L13.8733 10.1233M10.1694 13.9194L12.6655 10.8883C12.9815 10.5046 13.4042 10.2632 13.8733 10.1233M10.1694 13.9194L5.51432 19.5719C5.03037 20.1596 4.30897 20.5 3.54768 20.5C2.14064 20.5 1 19.3594 1 17.9523C1 17.191 1.34044 16.4696 1.9281 15.9857L8.76462 10.3556M13.8733 10.1233C14.4227 9.95943 15.0358 9.9348 15.6159 9.98384C15.7425 9.99454 15.8706 10 16 10C18.4853 10 20.5 7.98528 20.5 5.5C20.5 4.83973 20.3578 4.21268 20.1023 3.64779L16.8262 6.92397C15.7105 6.66785 14.8323 5.78963 14.5762 4.67397L17.8524 1.39774C17.2875 1.14223 16.6603 1 16 1C13.5147 1 11.5 3.01472 11.5 5.5C11.5 5.62938 11.5055 5.75749 11.5162 5.88411C11.6071 6.95956 11.4448 8.14841 10.6117 8.83452L10.5096 8.91858M8.76462 10.3556L4.65901 6.25H3.25L1 2.5L2.5 1L6.25 3.25V4.65901L10.5096 8.91858M8.76462 10.3556L10.5096 8.91858M17.125 17.125L14.5 14.5M3.61723 17.875H3.62473V17.8825H3.61723V17.875Z" stroke="#0F172A" stroke-width="1.5" stroke-linecap="round" stroke-linejoin="round"/>
</svg>
